<?xml version="1.0" encoding="UTF-8" standalone="no"?>
<!-- Generator: Adobe Illustrator 10.0, SVG Export Plug-In . SVG Version: 3.0.0 Build 77)  -->

<svg
   xmlns:i="http://ns.adobe.com/AdobeIllustrator/10.0/"
   xmlns:dc="http://purl.org/dc/elements/1.1/"
   xmlns:cc="http://creativecommons.org/ns#"
   xmlns:rdf="http://www.w3.org/1999/02/22-rdf-syntax-ns#"
   xmlns:svg="http://www.w3.org/2000/svg"
   xmlns="http://www.w3.org/2000/svg"
   xmlns:sodipodi="http://sodipodi.sourceforge.net/DTD/sodipodi-0.dtd"
   xmlns:inkscape="http://www.inkscape.org/namespaces/inkscape"
   enable-background="new 0 0 403.329 319.664"
   height="321.89493"
   i:pageBounds="0 792 612 0"
   i:rulerOrigin="0 0"
   i:viewOrigin="104 556"
   overflow="visible"
   space="preserve"
   viewBox="0 0 403.48479 321.89493"
   width="403.4848"
   id="svg3082"
   version="1.1"
   inkscape:version="0.48.3.1 r9886"
   sodipodi:docname="logo.svg"
   inkscape:export-filename="/home/copperwaitem/projects/hobrogramming/logo/logo.png"
   inkscape:export-xdpi="78.006821"
   inkscape:export-ydpi="78.006821"
   style="overflow:visible">
  <defs
     id="defs3139" />
  <sodipodi:namedview
     pagecolor="#ffffff"
     bordercolor="#666666"
     borderopacity="1"
     objecttolerance="10"
     gridtolerance="10"
     guidetolerance="10"
     inkscape:pageopacity="0"
     inkscape:pageshadow="2"
     inkscape:window-width="1920"
     inkscape:window-height="1026"
     id="namedview3137"
     showgrid="false"
     inkscape:zoom="0.92573511"
     inkscape:cx="142.99417"
     inkscape:cy="142.63741"
     inkscape:window-x="0"
     inkscape:window-y="26"
     inkscape:window-maximized="1"
     inkscape:current-layer="svg3082"
     fit-margin-top="0"
     fit-margin-left="0"
     fit-margin-right="0"
     fit-margin-bottom="0" />
  <path
     inkscape:connector-curvature="0"
     style="fill:#5ebb84;fill-opacity:1;fill-rule:evenodd"
     d="m 176.26269,321.89494 1.0625,-5.8125 6.78125,1.21875 c 0.37267,-0.27054 0.74116,-0.54472 1.125,-0.8125 l 1.40625,-7.875 9.03125,1.625 c 0.38177,-0.1977 0.7372,-0.39857 1.125,-0.59375 l 1.5,-6.46875 8.65624,1.9375 c 0.16836,-0.067 0.36215,-0.1209 0.53125,-0.1875 l 1.25,-7.0625 9.03125,1.625 0.65625,-3.75 7.25,1.3125 3.28125,-5.1875 5.84375,3.75 5.40625,-5.625 3.875,3.6875 5.875,-5.1875 4.0625,4.59375 5.3125,-5.5 5.125,5 6.09375,-3.53125 2.25,3.84375 5.875,-4.6875 1.90625,2.375 C 268.81939,185.28437 13.178198,304.26642 176.26269,321.89494 z"
     id="path3089-1"
     sodipodi:nodetypes="ccccccccccccccccccccccccccc" />
  <path
     id="path3107-5"
     i:knockout="Off"
     d="m 192.87478,123.03141 c 3.58159,-4.428 8.35704,-13.067 14.76049,-26.351014 32.07654,-16.388416 66.42091,-5.672509 65.44794,9.071344 -4.82972,11.447 -4.17767,13.82366 -6.18553,20.77066 -19.87103,-2.62577 -57.7834,2.83013 -74.0229,-3.49099 z"
     clip-rule="evenodd"
     inkscape:connector-curvature="0"
     style="fill:#b4af92;fill-opacity:1;fill-rule:evenodd"
     sodipodi:nodetypes="ccccc" />
  <path
     id="path3085"
     i:knockout="Off"
     d="m 262.24295,6.8554459 c 0,0 0.972,-4.608 3.384,-5.688 2.412,-1.11599995 7.416,-1.43999995 10.944,-0.93699995 3.563,0.504 8.567,2.33999995 10.116,3.95999995 1.548,1.584 0.468,4.356 -0.9,5.616 -1.368,1.2240001 -3.24,2.1960001 -7.2,1.6920001 -3.997,-0.503 -16.344,-4.6430001 -16.344,-4.6430001 z"
     clip-rule="evenodd"
     inkscape:connector-curvature="0"
     style="fill:#259b5e;fill-rule:evenodd" />
  <path
     id="path3087"
     i:knockout="Off"
     d="m 264.90695,2.6074459 -1.944,3.528 c 1.836,0.972 4.14,1.764 7.2,2.664 2.988,0.792 8.172,2.3400001 10.836,2.3040001 2.448,-0.18 4.824,-2.3040001 4.356,-2.9160001 -0.54,-0.576 -5.005,-0.828 -7.561,-1.044 -2.736,-0.324 -6.156,-0.648 -8.316,-1.26 -2.195,-0.791 -3.672,-1.835 -4.571,-3.276 z"
     clip-rule="evenodd"
     inkscape:connector-curvature="0"
     style="fill:#215b4d;fill-rule:evenodd" />
  <path
     style="fill:#259b5e;fill-rule:evenodd"
     d="m 96.70345,160.3112 c -22.248,21.384 -40.78975,38.7495 -56.59375,53.1875 -15.912,14.326 -31.4975001,24.8615 -37.4375001,32.3125 -5.904,7.346 -0.6415,8.14725 2.5625,11.53125 3.132,3.203 8.0617501,3.9955 16.5937501,8.0625 8.532,4.033 22.48075,10.43325 34.46875,16.15625 11.844,5.689 20.8305,12.03825 36.5625,17.90625 15.732,5.869 38.95925,13.58 57.03125,17 8.8585,1.62475 16.81549,2.62417 24.75,3.0625 l 1.0625,-5.8125 6.78125,1.21875 c 0.37267,-0.27054 0.74116,-0.54472 1.125,-0.8125 l 1.40625,-7.875 9.03125,1.625 c 0.38177,-0.1977 0.7372,-0.39857 1.125,-0.59375 l 1.5,-6.46875 8.65625,1.9375 c 0.16836,-0.067 0.36215,-0.1209 0.53125,-0.1875 l 1.25,-7.0625 9.03125,1.625 0.65625,-3.75 7.25,1.3125 3.28125,-5.1875 5.84375,3.75 5.40625,-5.625 3.875,3.6875 5.875,-5.1875 4.0625,4.59375 5.3125,-5.5 5.125,5 6.09375,-3.53125 2.25,3.84375 5.875,-4.6875 1.90625,2.375 c 8.01059,-7.64117 15.8608,-16.4376 24.125,-26.1875 16.02,-18.936 31.568,-41.27375 47.625,-68.09375 -84.637,-11.196 -169.327,-22.393 -254,-33.625 z"
     id="path3089"
     inkscape:connector-curvature="0" />
  <path
     id="path3091"
     i:knockout="Off"
     d="m 109.45795,221.16445 c 15.264,3.996 28.8,6.406 41.292,7.234 12.348,0.793 21.78,-0.107 32.76,-2.555 10.908,-2.521 21.492,-6.588 32.328,-12.348 -7.775,6.623 -16.956,11.447 -28.08,14.471 -11.232,2.953 -25.164,4.465 -38.304,3.42 -13.176,-1.222 -26.315,-4.499 -39.996,-10.222 z"
     clip-rule="evenodd"
     inkscape:connector-curvature="0"
     style="fill:#5ebb84;fill-rule:evenodd" />
  <path
     id="path3093"
     i:knockout="Off"
     d="m 113.30995,232.64745 c 10.044,3.277 21.06,5.4 33.588,6.373 12.636,0.9 27.504,2.016 40.86,-0.828 13.176,-2.953 25.38,-8.389 37.44,-16.596 -13.104,6.912 -26.388,11.592 -40.428,14.039 -14.22,2.268 -31.32,0.973 -43.38,0.432 -12.023,-0.577 -21.24,-1.584 -28.08,-3.42 z"
     clip-rule="evenodd"
     inkscape:connector-curvature="0"
     style="fill:#5ebb84;fill-rule:evenodd" />
  <path
     id="path3095"
     i:knockout="Off"
     d="m 80.981954,232.64745 c 7.596,3.924 17.568,7.236 30.599996,10.225 12.924,2.881 30.42,7.236 46.8,7.236 16.308,-0.145 34.812,-2.232 50.652,-7.668 15.804,-5.58 29.988,-13.717 43.38,-25.092 -15.228,9.504 -28.8,16.416 -41.688,21.275 -12.959,4.645 -22.644,5.977 -34.884,7.199 -12.348,1.152 -22.428,2.125 -38.304,0 -15.948,-2.302 -34.523,-6.55 -56.555996,-13.175 z"
     clip-rule="evenodd"
     inkscape:connector-curvature="0"
     style="fill:#5ebb84;fill-rule:evenodd" />
  <path
     id="path3097"
     i:knockout="Off"
     d="m 86.921954,245.42845 c 7.56,3.924 17.639996,7.271 30.635996,10.188 12.924,2.881 30.42,7.236 46.8,7.236 16.38,-0.18 34.74,-2.125 50.616,-7.633 15.805,-5.543 29.952,-13.787 43.416,-25.127 -15.228,9.504 -28.8,16.416 -41.688,21.275 -12.888,4.717 -22.716,5.977 -34.92,7.236 -12.384,1.152 -22.356,2.123 -38.268,0 -15.983,-2.304 -34.523,-6.552 -56.591996,-13.175 z"
     clip-rule="evenodd"
     inkscape:connector-curvature="0"
     style="fill:#5ebb84;fill-rule:evenodd" />
  <path
     id="path3099"
     i:knockout="Off"
     d="m 81.377954,251.79945 c 11.268,5.652 23.615996,10.008 37.871996,13.607 14.292,3.422 30.312,7.273 46.8,7.236 16.308,-0.143 32.112,-0.432 50.616,-7.668 18.504,-7.379 38.088,-19.008 59.58,-35.711 -14.94,10.439 -28.656,18.611 -42.12,25.092 -13.464,6.371 -23.04,10.764 -37.872,13.176 -15.048,2.305 -31.788,3.42 -51.048,0.863 -19.403,-2.698 -40.211,-8.099 -63.827996,-16.595 z"
     clip-rule="evenodd"
     inkscape:connector-curvature="0"
     style="fill:#5ebb84;fill-rule:evenodd" />
  <path
     id="path3101"
     i:knockout="Off"
     d="m 69.461954,258.17245 c 17.208,9.504 33.479996,16.416 49.787996,21.275 16.056,4.752 30.492,7.164 46.8,7.236 16.272,-0.037 32.22,-0.504 50.616,-7.668 18.396,-7.381 37.836,-19.297 59.148,-36.145 -15.732,11.34 -30.816,20.088 -46.368,26.783 -15.48,6.66 -29.304,11.053 -45.936,12.781 -16.812,1.477 -34.452,0.611 -53.604,-3.42 -19.26,-4.174 -38.951996,-10.943 -60.443996,-20.842 z"
     clip-rule="evenodd"
     inkscape:connector-curvature="0"
     style="fill:#5ebb84;fill-rule:evenodd" />
  <path
     id="path3103"
     i:knockout="Off"
     d="m 90.738954,167.55945 c -11.016,7.236 -51.588,47.557 -65.916,60.84 -14.364,12.996 -16.6320001,12.744 -19.5840001,17.029 -2.988,4.176 -2.556,5.471 2.124,8.063 4.7520001,2.484 16.9200001,4.43 25.9560001,7.236 9.036,2.773 24.732,12.602 27.648,9.361 2.628,-3.529 -14.58,-21.781 -11.484,-29.34 3.096,-7.525 24.912,-9.072 29.772,-15.336 4.608,-6.445 -3.456,-15.949 -1.692,-22.537 1.764,-6.588 10.044,-10.691 12.348,-16.596 2.195,-6.048 11.590996,-25.667 0.828,-18.72 z"
     clip-rule="evenodd"
     inkscape:connector-curvature="0"
     style="fill:#215b4d;fill-rule:evenodd" />
  <path
     style="fill:#f6f4e8;fill-rule:evenodd"
     d="m 233.26595,6.5924459 c -11.60091,0.013008 -23.86125,0.41375 -34.03125,2.28125 -16.236,3.0240001 -32.70875,10.6427501 -42.96875,15.7187501 -10.188,5.076 -16.878,17.531952 -22.458,22.679952 -5.58,5.148 -5.44225,-3.219702 -10.69825,7.976298 -5.328,11.268 -10.42275,31.65775 -16.21875,50.593754 -5.799,19.009 -18.28125,62.15625 -18.28125,62.15625 0,0 5.98475,4.865 17.46875,8.5 11.556,3.674 34.54325,9.3705 51.03125,13.1875 16.452,3.744 30.2165,6.424 46.8125,9.375 16.596,2.916 32.39425,5.3985 51.90625,8.0625 19.512,2.629 43.55475,6.21725 64.21875,7.65625 20.7,1.404 45.79375,2.75175 58.71875,0.84375 12.815,-1.943 5.04165,-10.10876 9.21765,-22.52876 4.104,-12.635 15.5371,-32.39199 15.5011,-51.93999 -0.107,-19.548 -2.786,-41.359254 -7.25,-54.031254 -4.536,-12.528 -14.12175,-13.89575 -19.59375,-20.84375 -5.4,-6.948 -5.12275,-13.13425 -12.71875,-20.40625 -7.704,-7.308 -20.79325,-16.81275 -32.78125,-22.96875 -12.061,-6.156 -25.54375,-10.89375 -38.71875,-13.5937501 -13.14,-2.736 -23.9385,-2.4905 -39.5625,-2.5625 -5.88563,-0.027 -12.63321,-0.1640547 -19.59375,-0.15625 z M 227.2347,98.998696 c 0.918,0.05311 1.81204,0.232791 2.6875,0.53125 2.18626,1.961744 -3.09229,1.940314 -4.375,2.343754 3.39906,0.53326 6.8646,0.25082 10.28125,0.5625 1.9758,0.72411 3.7738,-0.55987 5.25,-1.71875 2.76185,-2.286244 6.44619,-0.5779 9.65625,-0.5625 3.65153,0.147 6.16356,2.61437 7.125,6.03125 1.56191,2.32482 2.87759,4.8814 4.90625,6.90625 3.32239,1.52259 3.59402,5.64463 3.21875,8.8125 0.70148,3.60602 -1.83254,6.49907 -4.0625,8.90625 -1.49546,2.36112 -4.91849,3.9581 -7.59375,2.9375 -6.50835,-2.23243 -13.92317,-1.2971 -19.90625,2 -2.90362,1.60933 -6.25345,2.00304 -9.40625,2.9375 -3.30178,0.0161 -6.58959,1.72495 -9.9375,0.46875 -3.29437,-1.25325 -7.50818,0.75794 -10.1875,-2.21875 -2.0432,-2.32887 -3.93215,-5.10632 -4.625,-8.0625 -1.25236,-3.35341 -1.18224,-7.18479 0.0625,-10.53125 1.20825,-2.57408 3.88538,-4.12827 6.28125,-5.4375 2.56184,-1.649 5.41277,-2.75732 6.90625,-5.40625 2.11368,-1.93741 3.30521,-4.64079 6,-6 2.13588,-1.741494 4.96474,-2.659326 7.71875,-2.500004 z"
     id="path3105"
     inkscape:connector-curvature="0"
     sodipodi:nodetypes="sccscccccccccccccccccsscccccccccccccccccccs" />
  <path
     style="fill:#c8c5ab;fill-opacity:1;fill-rule:evenodd"
     d="m 106.5472,113.89445 c 0.90649,-0.67283 1.78058,-1.36617 2.77728,-1.87166 1.09588,-0.56818 2.08797,-1.25338 3.06459,-1.99855 0.97661,-0.74518 1.9312,-1.5602 2.87305,-2.37923 1.8837,-1.63807 3.78176,-3.31693 6.03341,-4.63157 2.40771,-1.2564 3.99151,-2.4761 5.52264,-3.679879 1.53113,-1.203772 3.00874,-2.405525 5.13957,-3.552983 1.97617,-1.431564 3.87758,-2.813746 5.7461,-4.25089 1.86852,-1.437143 3.69424,-2.910734 5.49072,-4.56812 1.65507,-1.470524 2.86927,-3.070862 3.89458,-4.726736 1.02531,-1.655874 1.8523,-3.371529 2.71344,-5.107412 0.45599,-0.952955 0.70492,-2.024463 0.82999,-3.140583 0.12508,-1.11612 0.15071,-2.290092 0.15962,-3.489537 0.009,-1.199444 -0.0117,-2.4135 0.0958,-3.616428 0.10747,-1.202929 0.34535,-2.394688 0.76614,-3.52126 0.26113,-1.246213 0.23957,-2.473233 0.0639,-3.711598 -0.17572,-1.238365 -0.52498,-2.494388 -0.92576,-3.743321 -0.80159,-2.497866 -1.83525,-5.026346 -2.26652,-7.67698 -1.41157,-2.483776 -2.54531,-4.729388 -3.47958,-7.010796 -0.53654,-1.310194 -0.86914,-2.767296 -1.27692,-4.155721 -4.65411,3.806993 -5.43534,9.686657 -8.75552,13.203611 -3.45686,3.362136 -8.45827,0.399744 -11.54737,7.416377 -3.19943,7.053178 -5.75785,17.77608 -10.02376,32.357521 -1.93217,6.421801 -4.39612,15.063425 -6.89532,23.855745 z"
     id="path4077"
     inkscape:connector-curvature="0"
     sodipodi:nodetypes="ccsscscscscsccccccscccccc" />
  <path
     style="fill:#d0cdba;fill-rule:evenodd"
     d="m 234.39095,7.9986959 c -6.975,0.1665 -14.94775,0.479 -19.84375,0.875 -9.792,0.72 -15.36825,0.495 -24.65625,3.3750001 -9.396,2.808 -23.2145,8.97075 -31.0625,13.21875 -7.848,4.068 -11.214,7.72 -15.75,11.5 -0.0363,0.02976 -0.0576,0.06399 -0.0937,0.09375 0.39918,1.367721 0.72477,2.803094 1.25,4.09375 0.91458,2.247388 2.02443,4.459513 3.40625,6.90625 0.42218,2.611108 1.43406,5.101882 2.21875,7.5625 0.39234,1.230309 0.73423,2.467602 0.90625,3.6875 0.17202,1.219898 0.19312,2.428621 -0.0625,3.65625 -0.41192,1.109772 -0.64479,2.28376 -0.75,3.46875 -0.10521,1.18499 -0.085,2.380942 -0.0937,3.5625 -0.009,1.181558 -0.0338,2.338024 -0.15625,3.4375 -0.12244,1.099476 -0.36612,2.155006 -0.8125,3.09375 -0.84299,1.709998 -1.65255,3.400069 -2.65625,5.03125 -1.0037,1.631181 -2.19231,3.207655 -3.8125,4.65625 -1.75862,1.632671 -3.54586,3.084287 -5.375,4.5 -1.82914,1.415713 -3.69048,2.777283 -5.625,4.1875 -2.08592,1.130347 -3.53239,2.314179 -5.03125,3.5 -1.49886,1.185821 -3.04928,2.387344 -5.40625,3.625004 -2.20419,1.29504 -4.06225,2.94886 -5.90625,4.5625 -0.922,0.80682 -1.85647,1.60969 -2.8125,2.34375 -0.95603,0.73406 -1.92722,1.40904 -3,1.96875 -0.97569,0.49795 -1.83136,1.18095 -2.71875,1.84375 -3.09468,10.95578 -6.23027,22.17921 -8.5625,29.71875 -4.248,13.284 -7.4365,21.91575 -9.8125,26.34375 2.375,1.441 5.5635,2.9585 9.8125,4.6875 4.212,1.727 10.4525,3.98425 15.3125,5.53125 4.788,1.476 9.0475,2.352 13.1875,3 1.332,-6.947 3.6085,-15.803 6.8125,-27.25 3.132,-11.628 7.19575,-28.1405 12.34375,-40.8125 5.112,-12.6 12.26925,-23.586504 18.28125,-34.062504 5.868,-10.548 9.97525,-19.43275 17.03125,-28.46875 7.02,-9.216 17.45625,-18.65525 24.65625,-25.53125 7.02,-6.84 10.77825,-11.95425 17.90625,-14.90625 7.236,-3.0600001 25.91625,-2.6760001 24.65625,-3.0000001 -0.828,-0.198 -6.80625,-0.1665 -13.78125,0 z"
     id="path3107"
     inkscape:connector-curvature="0" />
  <path
     id="path3109"
     i:knockout="Off"
     d="m 133.28995,183.72345 c -0.036,-6.875 1.62,-16.344 5.112,-28.943 3.456,-12.708 10.368,-33.804 15.732,-46.368 5.328,-12.672004 11.232,-19.908004 16.164,-28.512004 4.716,-8.604 6.984,-15.336 12.78,-22.968 5.904,-7.92 14.616,-16.596 22.104,-23.4 7.272,-6.804 12.564,-13.068 21.708,-16.992 9.181,-3.888 29.124,-5.328 32.761,-6.408 3.239,-1.1520001 -6.66,-1.3320001 -11.916,-0.8280001 -5.328,0.36 -13.464,1.4760001 -18.721,2.9520001 -5.184,1.332 -7.812,2.664 -11.916,5.544 -4.319,2.88 -8.748,8.244 -12.743,11.916 -3.889,3.564 -7.165,6.084 -10.656,9.792 -3.672,3.528 -6.84,7.164 -10.62,12.312 -3.816,5.148 -6.444,9.216 -11.916,18.72 -5.58,9.54 -15.588,26.1 -20.844,37.872004 -5.292,11.664 -7.128,18.828 -10.656,31.5 -3.6,12.6 -7.092,26.784 -10.62,43.38 1.404,0.144 2.807,0.288 4.247,0.431 z"
     clip-rule="evenodd"
     inkscape:connector-curvature="0"
     style="fill:#bbbda8;fill-rule:evenodd" />
  <path
     id="path3111"
     i:knockout="Off"
     d="m 285.60695,14.380446 c 9.863,7.668 17.892,15.012 24.659,22.572 6.589,7.452 11.557,11.304 15.337,22.104 3.743,10.764 6.947,26.892 7.235,41.724004 0.145,14.58 -2.268,26.928 -5.976,45.936 -3.816,19.08 -9.252,41.255 -16.597,67.644 h 4.681 c 2.268,-10.873 4.824,-22.176 7.668,-34.453 2.844,-12.348 7.128,-25.307 9.359,-38.735 2.089,-13.716 3.276,-30.528 3.42,-41.688004 0,-11.088 -0.863,-15.336 -2.987,-24.264 -2.196,-9.108 -4.212,-20.376 -9.792,-29.34 -5.76,-9.036 -17.641,-18.504 -23.832,-23.832 -6.192,-5.292 -10.583,-7.849 -13.175,-7.668 z"
     clip-rule="evenodd"
     inkscape:connector-curvature="0"
     style="fill:#bbbda8;fill-rule:evenodd" />
  <path
     id="path3113"
     i:knockout="Off"
     d="m 199.67395,42.063446 c 4.645,-6.156 8.568,-9.072 12.744,-12.78 4.104,-3.744 5.616,-6.732 11.916,-9.36 6.336,-2.736 18.684,-4.86 25.524,-6.372 6.624,-1.62 9.504,-3.024 14.472,-2.556 4.896,0.432 11.484,4.5 14.904,5.544 3.348,0.936 1.764,-1.98 5.111,0.396 3.24,2.376 10.188,9.792 14.437,13.644 4.14,3.636 7.56,4.572 10.656,8.496 3.023,3.924 11.88,13.14 7.668,14.868 -4.429,1.512 -26.929,-6.156 -33.624,-5.076 -6.696,1.188 -1.692,13.392 -6.372,11.916 -4.86,-1.764 -13.393,-20.664 -22.141,-21.708 -8.855,-0.972 -22.212,9.864 -30.204,15.3 -8.027,5.256 -12.491,14.112 -17.424,16.164 -4.968,1.836 -8.064,-3.888 -11.916,-4.68 -3.888,-0.792 -11.844,3.924 -11.088,0 0.721,-4.103 10.513,-17.676 15.337,-23.796 z"
     clip-rule="evenodd"
     inkscape:connector-curvature="0"
     style="fill:#d0cdba;fill-rule:evenodd" />
  <path
     id="path3115"
     i:knockout="Off"
     d="m 294.10295,12.256446 c 16.451,5.796 30.168,11.844 42.119,18.288 11.845,6.444 28.009,17.1 28.513,20.016 0.216,2.664 -22.788,-5.652 -26.389,-3.42 -3.6,2.268 6.624,15.444 5.112,17.028 -1.656,1.512 -6.336,-1.224 -14.472,-8.064 -1.08,-4.716 -3.204,-9.396 -6.372,-14.04 -3.313,-4.824 -8.028,-9.648 -12.744,-14.04 -4.824,-4.464 -12.672,-9.216 -15.336,-11.916 -2.664,-2.701 -2.808,-3.889 -0.431,-3.852 z"
     clip-rule="evenodd"
     inkscape:connector-curvature="0"
     style="fill:#d0cdba;fill-rule:evenodd" />
  <path
     id="path3117"
     i:knockout="Off"
     d="m 247.87795,53.404446 c -0.9,0.72 -1.152,1.224 -0.9,2.34 0.181,1.116 0.576,3.636 2.593,4.5 1.943,0.756 7.02,0.828 9.252,0.36 2.195,-0.612 3.708,-1.872 3.708,-3.24 -0.145,-1.404 -2.34,-3.744 -4.068,-4.788 -1.872,-1.188 -4.68,-1.8 -6.479,-1.692 -1.873,0.071 -3.241,1.655 -4.106,2.52 z"
     clip-rule="evenodd"
     inkscape:connector-curvature="0"
     style="fill:#215b4d;fill-rule:evenodd" />
  <path
     id="path3119"
     i:knockout="Off"
     d="m 249.53495,53.583446 c -0.756,0.54 -1.152,0.864 -1.188,1.656 -0.107,0.648 0.324,1.764 0.756,2.52 0.253,0.648 0.324,1.26 1.332,1.692 0.937,0.36 2.772,0.72 4.536,0.792 1.729,-0.072 4.141,-0.252 5.437,-0.828 1.08,-0.648 2.088,-1.692 1.368,-2.736 -0.864,-1.152 -4.5,-3.24 -6.049,-3.924 -1.584,-0.72 -2.447,-0.936 -3.42,-0.648 -1.225,0.145 -2.017,0.864 -2.772,1.476 z"
     clip-rule="evenodd"
     inkscape:connector-curvature="0"
     style="fill:#259b5e;fill-rule:evenodd" />
  <path
     id="path3121"
     i:knockout="Off"
     d="m 252.08995,55.311446 c -0.359,0.36 0.108,1.368 0.576,1.764 0.36,0.252 1.044,0.36 1.764,0.324 0.576,-0.036 2.017,-0.324 2.088,-0.72 -0.071,-0.468 -1.044,-1.584 -1.8,-1.8 -0.828,-0.216 -2.304,-0.072 -2.628,0.432 z"
     clip-rule="evenodd"
     inkscape:connector-curvature="0"
     style="fill:#bbbda8;fill-rule:evenodd" />
  <path
     id="path3123"
     i:knockout="Off"
     d="m 161.87395,35.079446 c -1.008,0.324 -1.548,0.756 -2.304,1.872 -0.864,1.152 -2.916,3.492 -2.808,4.932 0.072,1.332 1.728,3.06 3.024,3.384 1.116,0.18 2.88,-0.432 4.032,-1.692 1.116,-1.404 2.16,-4.104 2.556,-5.724 0.144,-1.584 -0.216,-3.276 -0.936,-3.672 -0.9,-0.576 -2.556,0.468 -3.564,0.9 z"
     clip-rule="evenodd"
     inkscape:connector-curvature="0"
     style="fill:#215b4d;fill-rule:evenodd" />
  <path
     id="path3125"
     i:knockout="Off"
     d="m 162.30695,35.836446 c -0.72,0.108 -1.224,0.468 -1.8,1.08 -0.756,0.612 -1.368,1.692 -1.836,2.556 -0.54,0.756 -0.9,1.188 -0.936,1.98 -0.036,0.72 0.288,1.548 0.972,2.196 0.54,0.504 1.692,1.188 2.628,1.08 0.9,-0.18 2.016,-0.864 2.808,-2.052 0.612,-1.368 0.972,-4.32 1.08,-5.544 -0.036,-1.296 -0.216,-1.548 -0.684,-1.728 -0.613,-0.325 -1.548,0.144 -2.232,0.432 z"
     clip-rule="evenodd"
     inkscape:connector-curvature="0"
     style="fill:#259b5e;fill-rule:evenodd" />
  <path
     id="path3127"
     i:knockout="Off"
     d="m 161.80295,38.247446 c -0.468,0.252 -1.224,1.224 -1.296,1.8 -0.288,0.432 0.108,0.72 0.36,0.864 0.288,0.108 0.936,0.396 1.368,0.036 0.324,-0.432 0.936,-1.764 0.864,-2.196 -0.145,-0.504 -0.9,-0.72 -1.296,-0.504 z"
     clip-rule="evenodd"
     inkscape:connector-curvature="0"
     style="fill:#bbbda8;fill-rule:evenodd" />
  <path
     id="path3129"
     i:knockout="Off"
     d="m 361.67395,73.707446 c 0.108,0.972 0.181,1.62 1.044,2.772 0.828,1.152 2.376,3.708 3.816,4.212 1.439,0.36 3.348,-0.792 4.176,-1.8 0.576,-1.116 0.504,-2.952 -0.36,-4.392 -0.936,-1.512 -3.275,-3.456 -4.644,-4.176 -1.44,-0.756 -3.204,-0.9 -3.78,-0.288 -0.647,0.612 -0.504,2.484 -0.252,3.672 z"
     clip-rule="evenodd"
     inkscape:connector-curvature="0"
     style="fill:#215b4d;fill-rule:evenodd" />
  <path
     id="path3131"
     i:knockout="Off"
     d="m 362.50195,73.563446 c 0,0.648 0.036,1.224 0.504,2.016 0.324,0.684 1.26,1.908 1.836,2.556 0.396,0.576 0.973,1.26 1.584,1.512 0.685,0.18 1.584,0.144 2.412,-0.252 0.685,-0.432 1.62,-1.296 1.836,-2.16 0.145,-1.008 -0.216,-2.34 -1.08,-3.312 -1.116,-1.08 -3.779,-2.268 -4.932,-2.736 -1.188,-0.54 -1.584,-0.324 -1.872,0.108 -0.396,0.288 -0.36,1.548 -0.288,2.268 z"
     clip-rule="evenodd"
     inkscape:connector-curvature="0"
     style="fill:#259b5e;fill-rule:evenodd" />
  <path
     id="path3133"
     i:knockout="Off"
     d="m 364.62595,74.787446 c 0.036,0.396 0.937,1.44 1.332,1.764 0.36,0.288 0.72,0.036 0.936,-0.072 0.181,-0.36 0.612,-0.792 0.469,-1.296 -0.324,-0.576 -1.404,-1.44 -1.836,-1.476 -0.469,-0.035 -1.044,0.468 -0.901,1.08 z"
     clip-rule="evenodd"
     inkscape:connector-curvature="0"
     style="fill:#bbbda8;fill-rule:evenodd" />
  <metadata
     id="metadata3135">
    <rdf:RDF>
      <cc:Work>
        <dc:format>image/svg+xml</dc:format>
        <dc:type
           rdf:resource="http://purl.org/dc/dcmitype/StillImage" />
        <cc:license
           rdf:resource="http://creativecommons.org/licenses/publicdomain/" />
        <dc:publisher>
          <cc:Agent
             rdf:about="http://openclipart.org/">
            <dc:title>Open Clip Art Library</dc:title>
          </cc:Agent>
        </dc:publisher>
        <dc:title></dc:title>
        <dc:date>2007-11-13T23:24:36</dc:date>
        <dc:description />
        <dc:source>http://openclipart.org/detail/8302/baseball-cap-by-gerald_g-8302</dc:source>
        <dc:creator>
          <cc:Agent>
            <dc:title>Gerald_G</dc:title>
          </cc:Agent>
        </dc:creator>
        <dc:subject>
          <rdf:Bag>
            <rdf:li>ball</rdf:li>
            <rdf:li>baseball</rdf:li>
            <rdf:li>cap</rdf:li>
            <rdf:li>clip art</rdf:li>
            <rdf:li>clipart</rdf:li>
            <rdf:li>clothing</rdf:li>
            <rdf:li>colouring book</rdf:li>
            <rdf:li>hat</rdf:li>
            <rdf:li>sport</rdf:li>
          </rdf:Bag>
        </dc:subject>
      </cc:Work>
      <cc:License
         rdf:about="http://creativecommons.org/licenses/publicdomain/">
        <cc:permits
           rdf:resource="http://creativecommons.org/ns#Reproduction" />
        <cc:permits
           rdf:resource="http://creativecommons.org/ns#Distribution" />
        <cc:permits
           rdf:resource="http://creativecommons.org/ns#DerivativeWorks" />
      </cc:License>
    </rdf:RDF>
  </metadata>
  <path
     style="fill:#a86a0e;fill-opacity:0.12765958;stroke:none"
     d="m 355.32317,130.32593 c 2.03211,7.67698 0.0831,16.05561 -3.52172,22.95539 -2.65727,4.75452 -9.6568,15.4052 -0.64814,17.24164 7.09128,0.82208 14.09852,-1.50212 20.93155,-3.1488 8.04461,-1.32905 12.04038,-9.09151 12.20348,-16.59341 2.31182,-5.54975 1.32931,-11.01254 -2.31622,-15.68791 -4.08175,-5.60306 -5.32113,-12.3334 -5.73291,-19.16329 -0.86878,-6.08089 -3.50295,-12.11905 -8.8651,-15.55755 -4.85323,-1.870376 -10.19767,-8.059759 -14.61108,-7.758169 -0.87569,5.940197 1.40006,12.249839 3.50565,17.764979 4.23561,6.69041 1.15923,13.31874 -0.94546,19.94712 l -5e-5,0 z"
     id="path4064"
     inkscape:connector-curvature="0" />
</svg>
